<svg width="36" height="36" viewBox="0 0 36 36" fill="none" xmlns="http://www.w3.org/2000/svg">
<path d="M9.31991 15.3593C10.5719 11.5654 14.1373 8.84067 18.3603 8.84067C20.6304 8.84067 22.6809 9.64619 24.2919 10.9643L28.9786 6.27763C26.1227 3.78782 22.4612 2.25 18.3603 2.25C12.0102 2.25 6.54293 5.87258 3.91455 11.1779L9.31991 15.3593Z" fill="#EA4335"/>
<path d="M23.7854 26.4325C22.3223 27.3772 20.4631 27.8802 18.3605 27.8802C14.1537 27.8802 10.5995 25.1762 9.3346 21.405L3.91138 25.5228C6.53649 30.8374 12.0036 34.4708 18.3605 34.4708C22.298 34.4708 26.0605 33.0711 28.8783 30.4426L23.7854 26.4325Z" fill="#34A853"/>
<path d="M28.8781 30.4427C31.8249 27.6938 33.7386 23.6012 33.7386 18.3603C33.7386 17.4084 33.5921 16.3831 33.3724 15.4312H18.3604V21.6557H27.0014C26.5751 23.7488 25.4306 25.37 23.7852 26.4325L28.8781 30.4427Z" fill="#4A90E2"/>
<path d="M9.33458 21.4055C9.01417 20.4502 8.84067 19.4265 8.84067 18.3608C8.84067 17.3113 9.00895 16.3024 9.3201 15.3596L3.91474 11.1782C2.83614 13.3403 2.25 15.7769 2.25 18.3608C2.25 20.9379 2.84714 23.3687 3.91135 25.5232L9.33458 21.4055Z" fill="#FBBC05"/>
</svg>
